# xmcd
#
# Track frame offsets:
#	150
#	17215
#	34370
#	66095
#	71130
#	85800
#	98130
#	109885
#	135050
#	159525
#
# Disc length: 2475 seconds
#
# Revision: 1
# Processed by: cddbd v1.5.1PL2 Copyright (c) Steve Scherf et al.
# Submitted via: EasyCDDAExtractor 8.0.2.1
#
DISCID=8109a90a
DTITLE=Dio - Tingley Coliseum Albuquerque 02-03-88 Disc 2
DYEAR=1988
DGENRE=Hard Rock
TTITLE0=Man On The Silver Mountain
TTITLE1=All The Fools Sailde Away
TTITLE2=Keyboard Solo
TTITLE3=The Last In Line Reprise
TTITLE4=Rock and Roll Children
TTITLE5=Long Live Rock and Roll
TTITLE6=Rock and Roll Children Reprise
TTITLE7=Rainbow In The Dark
TTITLE8=We Rock
TTITLE9=Don't Talk To Strangers
EXTD=
EXTT0=
EXTT1=
EXTT2=
EXTT3=
EXTT4=
EXTT5=
EXTT6=
EXTT7=
EXTT8=
EXTT9=
PLAYORDER=
